<mxfile host="app.diagrams.net" modified="2023-03-07T09:18:41.765Z" agent="5.0 (Macintosh; Intel Mac OS X 10_15_7) AppleWebKit/537.36 (KHTML, like Gecko) Chrome/110.0.0.0 Safari/537.36" etag="ETlk3CO00kQzixoGJvzr" version="21.0.2" type="github">
  <diagram id="ai7Lo1Sau0IDjWJQkmP9" name="Page-1">
    <mxGraphModel dx="1174" dy="658" grid="1" gridSize="10" guides="1" tooltips="1" connect="1" arrows="1" fold="1" page="1" pageScale="1" pageWidth="850" pageHeight="1100" math="0" shadow="0">
      <root>
        <mxCell id="0" />
        <mxCell id="1" parent="0" />
        <mxCell id="_bm8M7ZN4UZ2x1WnYVeR-11" style="edgeStyle=orthogonalEdgeStyle;rounded=0;orthogonalLoop=1;jettySize=auto;html=1;exitX=0.5;exitY=0;exitDx=0;exitDy=0;" edge="1" parent="1" source="_bm8M7ZN4UZ2x1WnYVeR-1" target="_bm8M7ZN4UZ2x1WnYVeR-10">
          <mxGeometry relative="1" as="geometry" />
        </mxCell>
        <mxCell id="_bm8M7ZN4UZ2x1WnYVeR-1" value="Consistency&lt;br&gt;Encoder" style="shape=trapezoid;perimeter=trapezoidPerimeter;whiteSpace=wrap;html=1;fixedSize=1;rotation=90;size=30;fillColor=#d5e8d4;strokeColor=#82b366;" vertex="1" parent="1">
          <mxGeometry x="110" y="140" width="120" height="60" as="geometry" />
        </mxCell>
        <mxCell id="_bm8M7ZN4UZ2x1WnYVeR-8" style="edgeStyle=orthogonalEdgeStyle;rounded=0;orthogonalLoop=1;jettySize=auto;html=1;exitX=1;exitY=0.5;exitDx=0;exitDy=0;" edge="1" parent="1" source="_bm8M7ZN4UZ2x1WnYVeR-2" target="_bm8M7ZN4UZ2x1WnYVeR-1">
          <mxGeometry relative="1" as="geometry" />
        </mxCell>
        <mxCell id="_bm8M7ZN4UZ2x1WnYVeR-2" value="" style="ellipse;whiteSpace=wrap;html=1;aspect=fixed;" vertex="1" parent="1">
          <mxGeometry x="40" y="110" width="30" height="30" as="geometry" />
        </mxCell>
        <mxCell id="_bm8M7ZN4UZ2x1WnYVeR-7" style="edgeStyle=orthogonalEdgeStyle;rounded=0;orthogonalLoop=1;jettySize=auto;html=1;exitX=1;exitY=0.5;exitDx=0;exitDy=0;dashed=1;" edge="1" parent="1" source="_bm8M7ZN4UZ2x1WnYVeR-3" target="_bm8M7ZN4UZ2x1WnYVeR-1">
          <mxGeometry relative="1" as="geometry" />
        </mxCell>
        <mxCell id="_bm8M7ZN4UZ2x1WnYVeR-3" value="" style="ellipse;whiteSpace=wrap;html=1;aspect=fixed;dashed=1;strokeWidth=2;" vertex="1" parent="1">
          <mxGeometry x="40" y="155" width="30" height="30" as="geometry" />
        </mxCell>
        <mxCell id="_bm8M7ZN4UZ2x1WnYVeR-9" style="edgeStyle=orthogonalEdgeStyle;rounded=0;orthogonalLoop=1;jettySize=auto;html=1;exitX=1;exitY=0.5;exitDx=0;exitDy=0;" edge="1" parent="1" source="_bm8M7ZN4UZ2x1WnYVeR-4" target="_bm8M7ZN4UZ2x1WnYVeR-1">
          <mxGeometry relative="1" as="geometry" />
        </mxCell>
        <mxCell id="_bm8M7ZN4UZ2x1WnYVeR-4" value="" style="ellipse;whiteSpace=wrap;html=1;aspect=fixed;" vertex="1" parent="1">
          <mxGeometry x="40" y="200" width="30" height="30" as="geometry" />
        </mxCell>
        <mxCell id="_bm8M7ZN4UZ2x1WnYVeR-13" style="edgeStyle=orthogonalEdgeStyle;rounded=0;orthogonalLoop=1;jettySize=auto;html=1;exitX=0.5;exitY=0;exitDx=0;exitDy=0;" edge="1" parent="1" source="_bm8M7ZN4UZ2x1WnYVeR-10" target="_bm8M7ZN4UZ2x1WnYVeR-12">
          <mxGeometry relative="1" as="geometry" />
        </mxCell>
        <mxCell id="_bm8M7ZN4UZ2x1WnYVeR-15" style="edgeStyle=orthogonalEdgeStyle;rounded=0;orthogonalLoop=1;jettySize=auto;html=1;exitX=0.5;exitY=0;exitDx=0;exitDy=0;" edge="1" parent="1" source="_bm8M7ZN4UZ2x1WnYVeR-10" target="_bm8M7ZN4UZ2x1WnYVeR-14">
          <mxGeometry relative="1" as="geometry" />
        </mxCell>
        <mxCell id="_bm8M7ZN4UZ2x1WnYVeR-10" value="" style="rounded=0;whiteSpace=wrap;html=1;rotation=90;fillColor=#f5f5f5;fontColor=#333333;strokeColor=#666666;" vertex="1" parent="1">
          <mxGeometry x="210" y="160" width="100" height="20" as="geometry" />
        </mxCell>
        <mxCell id="_bm8M7ZN4UZ2x1WnYVeR-12" value="Contrastive &lt;br&gt;Head" style="rounded=1;whiteSpace=wrap;html=1;fillColor=#d5e8d4;strokeColor=#82b366;" vertex="1" parent="1">
          <mxGeometry x="330" y="90" width="120" height="60" as="geometry" />
        </mxCell>
        <mxCell id="_bm8M7ZN4UZ2x1WnYVeR-14" value="Clustering&lt;br&gt;Head" style="rounded=1;whiteSpace=wrap;html=1;fillColor=#d5e8d4;strokeColor=#82b366;" vertex="1" parent="1">
          <mxGeometry x="330" y="180" width="120" height="60" as="geometry" />
        </mxCell>
      </root>
    </mxGraphModel>
  </diagram>
</mxfile>
